<?xml version="1.0" encoding="UTF-8"?>
<svg id="Layer_2" xmlns="http://www.w3.org/2000/svg" xmlns:xlink="http://www.w3.org/1999/xlink" version="1.1" viewBox="0 0 144 144">
  <!-- Generator: Adobe Illustrator 29.1.0, SVG Export Plug-In . SVG Version: 2.1.0 Build 142)  -->
  <defs>
    <style>
      .st0 {
        fill: none;
      }

      .st1 {
        fill: #e4007e;
      }

      .st2 {
        fill: #1c0f42;
      }

      .st3 {
        clip-path: url(#clippath);
      }
    </style>
    <clipPath id="clippath">
      <rect class="st0" width="144" height="144"/>
    </clipPath>
  </defs>
  <g id="Capa_1">
    <g class="st3">
      <g>
        <path class="st1" d="M108.7,33.9c-10.3-10-24.2-15.3-38.5-14.9l.3,9.4c11.8-.3,23.3,4.1,31.8,12.3,17.5,16.9,18,44.7,1.1,62.2-16.9,17.5-44.7,18-62.2,1.1-17.5-16.9-18-44.7-1.1-62.2,3.4-3.5,7.3-6.4,11.6-8.6l-3.9-8.5c-5,2.5-9.5,5.7-13.4,9.6-.3.3-.7.7-1,1s-.6.7-.9,1c-19.5,21.4-18.5,54.4,2.3,74.5,20.8,20.1,53.8,19.9,74.5-.4.3-.3.7-.7,1-1,.3-.3.6-.7.9-1,19.5-21.3,18.5-54.4-2.3-74.5"/>
        <path class="st2" d="M136.6,40.3c-6.7-13.8-17.7-25-31.2-32.1C70.2-10.2,26.7,3.4,8.2,38.6.1,54-2.1,71.7,2,88.6l1.7-.4c-4-16.5-1.8-33.8,6.1-48.8C27.8,5.1,70.2-8.2,104.6,9.8c34.3,18,47.6,60.4,29.6,94.8-14.7,28-46.4,42.8-77.3,36l-.2,1.7c31.7,6.8,64-8.3,79.1-37,10.3-19.7,10.9-43.1,1.6-63.4"/>
      </g>
    </g>
  </g>
</svg>